<svg width="32" height="32" viewBox="0 0 32 32" fill="none" xmlns="http://www.w3.org/2000/svg">
<rect width="32" height="32" rx="16" fill="#FFE9EE"/>
<path d="M12.0578 18.6125H14.5714L14.6332 17.1191H11.9961L12.0578 18.6125Z" fill="#FB3747"/>
<path d="M10.3283 15.5908H11.9326L11.9695 16.4796H14.6593L14.6962 15.5908H16.3005L16.8737 13.7754H15.9146L16.4437 11.7689H15.5247V11.3821H13.6846V8.96008H14.6445V8H12.0847V8.9599H13.0446V11.3821H11.3115V11.7687H10.3044L10.8336 13.7752H9.75488L10.3283 15.5908ZM16.0614 14.3726L15.9182 14.9936H14.9626V14.3726H16.0614ZM13.7093 12.4377H15.4275L15.1408 13.4889H13.7091L13.7093 12.4377ZM13.5293 14.3726H14.4849V14.9936H13.5293V14.3726ZM13.0514 14.3726V14.9936H12.0959V14.3726H13.0514ZM13.0388 12.4377V13.4889H11.6072L11.3205 12.4377H13.0388ZM11.6183 14.3726V14.9936H10.6628L10.5195 14.3726H11.6183Z" fill="#FB3747"/>
<path d="M14.4962 20.4164L14.5443 19.2529H12.084L12.132 20.4164H10.8296V23.9995H15.6575V22.5331H18.9641V23.9995H22.2002V20.4164H14.4962ZM12.3422 23.1726H11.6487V22.4791H12.3422V23.1726ZM12.3422 21.8929H11.6487V21.1994H12.3422V21.8929ZM13.6222 23.1726H12.9288V22.4791H13.6222V23.1726ZM13.6222 21.8929H12.9288V21.1994H13.6222V21.8929ZM14.9021 23.1726H14.2088V22.4791H14.9021V23.1726ZM14.9021 21.8929H14.2088V21.1994H14.9021V21.8929ZM16.1955 21.8929H15.502V21.1994H16.1955V21.8929ZM17.4708 21.8929H16.7776V21.1994H17.4709L17.4708 21.8929ZM18.742 21.8929H18.0487V21.1994H18.742V21.8929ZM20.1019 23.3861H19.4086V22.6926H20.1019V23.3861ZM20.1019 21.8929H19.4086V21.1994H20.1019V21.8929ZM21.4486 23.3861H20.7552V22.6926H21.4486V23.3861ZM21.4486 21.8929H20.7552V21.1994H21.4486V21.8929Z" fill="#FB3747"/>
<path fill-rule="evenodd" clip-rule="evenodd" d="M16.7209 17.8864L17.3369 18.3414C17.7422 18.1193 18.1722 17.9154 18.5666 17.6854C18.3642 17.419 17.7627 17.0741 17.4625 16.8014L17.6589 16.4657L19.2611 16.8581C19.4388 16.9127 19.6211 16.9652 19.7748 16.9794C19.826 16.9839 19.8742 16.9843 19.9178 16.9793C20.0211 16.967 20.1284 16.9305 20.239 16.8788L20.2444 16.8763L20.245 16.8761L21.614 16.2363C22.0186 16.1265 22.2449 16.1533 22.2449 16.1533C22.2182 16.3952 22.0867 16.5615 21.9009 16.6969L17.699 18.7164C17.699 18.7164 17.6914 18.7171 17.6783 18.7187C17.5804 18.7471 17.3493 18.801 17.1444 18.745L16.6489 18.4113L16.7209 17.8864Z" fill="#FB3747"/>
</svg>
