<svg width="32" height="32" viewBox="0 0 32 32" fill="none" xmlns="http://www.w3.org/2000/svg">
<rect width="32" height="32" rx="16" fill="#FFE9EE"/>
<path d="M12.143 8.68457C12.0732 8.68484 12.0063 8.7127 11.957 8.76206C11.9076 8.81142 11.8797 8.87829 11.8795 8.94809V9.48908C11.8793 9.52382 11.886 9.55825 11.8992 9.59039C11.9124 9.62254 11.9318 9.65178 11.9562 9.67644C11.9807 9.70111 12.0098 9.72071 12.0418 9.73413C12.0739 9.74755 12.1082 9.75452 12.143 9.75466C12.1779 9.7548 12.2125 9.74802 12.2448 9.73472C12.2771 9.72142 12.3064 9.70187 12.3311 9.67718C12.3558 9.65249 12.3753 9.62316 12.3886 9.59087C12.4019 9.55859 12.4087 9.52399 12.4086 9.48908V8.94809C12.4084 8.91335 12.4015 8.87897 12.388 8.84693C12.3746 8.81488 12.355 8.7858 12.3304 8.76133C12.3057 8.73686 12.2765 8.71748 12.2443 8.70431C12.2122 8.69114 12.1777 8.68444 12.143 8.68457ZM9.63389 9.72521C9.59899 9.72528 9.56445 9.73226 9.53226 9.74574C9.50007 9.75922 9.47086 9.77893 9.44632 9.80375C9.3972 9.8533 9.36963 9.92025 9.36963 9.99002C9.36963 10.0598 9.3972 10.1267 9.44632 10.1763L9.82713 10.5592C9.85157 10.5839 9.88065 10.6037 9.91272 10.6172C9.94478 10.6307 9.9792 10.6377 10.014 10.6379C10.0488 10.6381 10.0833 10.6315 10.1155 10.6183C10.1477 10.6052 10.177 10.5858 10.2017 10.5613C10.2265 10.5367 10.2461 10.5075 10.2595 10.4753C10.2728 10.4431 10.2797 10.4086 10.2797 10.3737C10.2797 10.3388 10.2728 10.3043 10.2595 10.2721C10.2461 10.24 10.2265 10.2107 10.2017 10.1861L9.81938 9.80378C9.77033 9.75417 9.70366 9.7259 9.63389 9.72521ZM14.6547 9.72573C14.6198 9.72566 14.5853 9.73248 14.5532 9.74577C14.521 9.75907 14.4917 9.7786 14.4671 9.80323L14.0863 10.1861C14.0616 10.2107 14.042 10.2399 14.0286 10.2721C14.0152 10.3043 14.0083 10.3388 14.0083 10.3737C14.0083 10.4085 14.0152 10.443 14.0286 10.4752C14.042 10.5074 14.0616 10.5366 14.0863 10.5612C14.1361 10.6102 14.2034 10.6375 14.2733 10.6371C14.3432 10.6367 14.4101 10.6087 14.4594 10.5591L14.8422 10.1762C14.8915 10.1267 14.9192 10.0596 14.9192 9.98972C14.9192 9.91982 14.8915 9.85276 14.8422 9.80319C14.8176 9.77856 14.7884 9.75904 14.7562 9.74574C14.724 9.73244 14.6895 9.72566 14.6547 9.72573ZM12.143 10.5571C11.1059 10.5571 10.2606 11.4057 10.2606 12.4436C10.2606 13.4815 11.1059 14.3285 12.143 14.3285C13.18 14.3285 14.0274 13.4815 14.0274 12.4436C14.0274 11.4057 13.18 10.5571 12.143 10.5571ZM12.143 11.0867C12.8937 11.0867 13.4983 11.6912 13.4983 12.4436C13.4983 13.1959 12.8937 13.7989 12.143 13.7989C11.3923 13.7989 10.7897 13.1959 10.7897 12.4436C10.7897 11.6912 11.3923 11.0867 12.143 11.0867ZM8.59273 12.2405C8.55795 12.2404 8.52348 12.2471 8.4913 12.2603C8.45911 12.2735 8.42985 12.2929 8.40518 12.3174C8.38051 12.342 8.36092 12.3711 8.34753 12.4032C8.33414 12.4353 8.32722 12.4698 8.32715 12.5045C8.32701 12.5395 8.33379 12.5741 8.34709 12.6063C8.36039 12.6386 8.37995 12.668 8.40463 12.6926C8.42932 12.7173 8.45866 12.7369 8.49094 12.7502C8.52322 12.7635 8.55782 12.7703 8.59273 12.7701H9.13372C9.16846 12.77 9.20284 12.763 9.23488 12.7496C9.26693 12.7362 9.29601 12.7166 9.32048 12.6919C9.34495 12.6672 9.36433 12.638 9.3775 12.6059C9.39066 12.5737 9.39737 12.5393 9.39724 12.5045C9.3971 12.4346 9.36931 12.3676 9.31994 12.3182C9.27056 12.2687 9.20362 12.2408 9.13372 12.2405H8.59273ZM15.1543 12.2405C15.0844 12.2408 15.0175 12.2687 14.9681 12.3182C14.9187 12.3676 14.8909 12.4346 14.8908 12.5045C14.8907 12.5393 14.8974 12.5737 14.9105 12.6059C14.9237 12.638 14.9431 12.6672 14.9676 12.6919C14.992 12.7166 15.0211 12.7362 15.0532 12.7496C15.0852 12.763 15.1196 12.77 15.1543 12.7701H15.6953C15.73 12.77 15.7644 12.763 15.7965 12.7496C15.8285 12.7362 15.8576 12.7166 15.8821 12.6919C15.9065 12.6672 15.9259 12.638 15.9391 12.6059C15.9522 12.5737 15.959 12.5393 15.9588 12.5045C15.9587 12.4346 15.9309 12.3676 15.8815 12.3182C15.8321 12.2687 15.7652 12.2408 15.6953 12.2405H15.1543ZM19.3665 14.0603C19.1513 14.0583 18.938 14.0722 18.7283 14.1017C17.0507 14.337 15.5921 15.5523 15.1269 17.2949C15.1262 17.2961 15.1255 17.2973 15.1248 17.2985C15.1128 17.3472 15.1021 17.3961 15.0918 17.4452C15.0777 17.5114 15.0895 17.5805 15.1247 17.6383C15.16 17.696 15.2161 17.7381 15.2814 17.7558L18.9644 18.7468L17.8866 22.7864H10.5438C10.5088 22.7862 10.4742 22.793 10.442 22.8063C10.4097 22.8196 10.3803 22.8391 10.3557 22.8638C10.331 22.8885 10.3114 22.9179 10.2981 22.9501C10.2848 22.9824 10.278 23.017 10.2782 23.0519C10.2783 23.0867 10.2853 23.1211 10.2987 23.1531C10.3121 23.1851 10.3317 23.2142 10.3564 23.2387C10.3811 23.2632 10.4103 23.2825 10.4424 23.2957C10.4746 23.3089 10.509 23.3156 10.5438 23.3155H18.0695C18.0762 23.3157 18.0829 23.3157 18.0897 23.3155H21.7376C21.7723 23.3156 21.8067 23.3089 21.8389 23.2957C21.871 23.2825 21.9003 23.2632 21.9249 23.2387C21.9496 23.2142 21.9692 23.1851 21.9826 23.1531C21.996 23.1211 22.003 23.0867 22.0032 23.0519C22.0033 23.017 21.9965 22.9824 21.9832 22.9501C21.9699 22.9179 21.9504 22.8885 21.9257 22.8638C21.901 22.8391 21.8716 22.8196 21.8394 22.8063C21.8071 22.793 21.7725 22.7862 21.7376 22.7864H18.4343L19.476 18.8842L23.1575 19.8747C23.223 19.8923 23.2928 19.8841 23.3524 19.8517C23.412 19.8193 23.4569 19.7652 23.4778 19.7006C23.4933 19.6529 23.5084 19.6047 23.5223 19.5565C23.523 19.5551 23.5237 19.5537 23.5244 19.5524C24.1446 17.2289 22.7667 14.8321 20.4505 14.2092C20.0886 14.1118 19.725 14.0637 19.3665 14.0603ZM10.0147 14.3714C9.97983 14.3714 9.94532 14.3783 9.91313 14.3917C9.88094 14.4051 9.85171 14.4247 9.82713 14.4494L9.44632 14.8323C9.42161 14.8569 9.402 14.8861 9.38861 14.9183C9.37523 14.9505 9.36834 14.985 9.36834 15.0198C9.36834 15.0547 9.37523 15.0892 9.38861 15.1214C9.402 15.1536 9.42161 15.1828 9.44632 15.2074C9.49589 15.2567 9.56295 15.2844 9.63285 15.2844C9.70275 15.2844 9.76981 15.2567 9.81938 15.2074L10.2017 14.8245C10.2265 14.7999 10.2461 14.7707 10.2595 14.7385C10.2728 14.7063 10.2797 14.6718 10.2797 14.637C10.2797 14.6021 10.2728 14.5676 10.2595 14.5354C10.2461 14.5032 10.2265 14.474 10.2017 14.4494C10.1772 14.4247 10.1481 14.4052 10.116 14.3918C10.0839 14.3784 10.0495 14.3715 10.0147 14.3714ZM14.2739 14.3714C14.239 14.3714 14.2045 14.3783 14.1723 14.3917C14.1401 14.4051 14.1109 14.4247 14.0863 14.4494C14.0616 14.474 14.042 14.5032 14.0286 14.5354C14.0152 14.5676 14.0083 14.6021 14.0083 14.637C14.0083 14.6718 14.0152 14.7063 14.0286 14.7385C14.042 14.7707 14.0616 14.7999 14.0863 14.8245L14.4671 15.2074C14.4917 15.2321 14.5209 15.2517 14.5531 15.2651C14.5853 15.2785 14.6198 15.2854 14.6547 15.2854C14.6895 15.2854 14.724 15.2785 14.7562 15.2651C14.7884 15.2517 14.8176 15.2321 14.8422 15.2074C14.8669 15.1828 14.8866 15.1536 14.8999 15.1214C14.9133 15.0892 14.9202 15.0547 14.9202 15.0198C14.9202 14.985 14.9133 14.9505 14.8999 14.9183C14.8866 14.8861 14.8669 14.8569 14.8422 14.8323L14.4594 14.4494C14.4102 14.4 14.3436 14.3719 14.2739 14.3714ZM19.2652 14.5894C19.4938 14.5861 19.7251 14.6038 19.9571 14.6432C18.9296 15.0712 18.0743 16.3101 17.6717 17.8183C17.671 17.819 17.6703 17.8197 17.6696 17.8204C17.6673 17.8295 17.6651 17.8386 17.6629 17.8478L15.6932 17.3181C16.1376 15.849 17.3652 14.8246 18.7986 14.6251C18.9521 14.6037 19.108 14.5917 19.2652 14.5894ZM21.0447 15.0002C22.5865 15.7805 23.4247 17.5413 23.0206 19.2888L21.3759 18.8465C21.3787 18.837 21.3815 18.8276 21.3842 18.8181C21.3842 18.8179 21.3842 18.8183 21.3842 18.8181C21.3842 18.8179 21.3842 18.8172 21.3842 18.8171C21.3842 18.8169 21.3842 18.8172 21.3842 18.8171C21.3842 18.8169 21.3842 18.8162 21.3842 18.816C21.7749 17.3526 21.6693 15.8948 21.0447 15.0002ZM20.3988 15.0545C21.0236 15.6729 21.2809 17.1504 20.8726 18.6796C20.8699 18.6894 20.8671 18.6992 20.8643 18.7091L18.1739 17.9852C18.1763 17.9751 18.1786 17.9647 18.1811 17.9547L18.1832 17.9511C18.5923 16.4236 19.5509 15.2755 20.3988 15.0545ZM12.143 15.256C12.0732 15.2562 12.0063 15.2841 11.957 15.3335C11.9076 15.3828 11.8797 15.4497 11.8795 15.5195V16.0605C11.8793 16.0952 11.886 16.1296 11.8992 16.1618C11.9124 16.1939 11.9318 16.2232 11.9562 16.2478C11.9807 16.2725 12.0098 16.2921 12.0418 16.3055C12.0739 16.3189 12.1082 16.3259 12.143 16.3261C12.1779 16.3262 12.2125 16.3194 12.2448 16.3061C12.2771 16.2928 12.3064 16.2733 12.3311 16.2486C12.3558 16.2239 12.3753 16.1946 12.3886 16.1623C12.4019 16.13 12.4087 16.0954 12.4086 16.0605V15.5195C12.4084 15.4847 12.4015 15.4504 12.388 15.4183C12.3746 15.3863 12.355 15.3572 12.3304 15.3327C12.3057 15.3083 12.2765 15.2889 12.2443 15.2757C12.2122 15.2625 12.1777 15.2558 12.143 15.256Z" fill="#FB3747"/>
</svg>
