<svg width="32" height="32" viewBox="0 0 32 32" fill="none" xmlns="http://www.w3.org/2000/svg">
<rect width="32" height="32" rx="16" fill="#FFE9EE"/>
<path d="M14.2493 10.8513C15.4124 10.6605 16.5988 10.6605 17.7619 10.8513C17.8666 10.8642 17.9722 10.8362 18.0567 10.773C18.1411 10.7098 18.1978 10.6164 18.2149 10.5123C18.232 10.4082 18.2082 10.3015 18.1484 10.2147C18.0886 10.1278 17.9975 10.0674 17.8941 10.0462C16.644 9.84137 15.3688 9.84137 14.1187 10.0462C14.0154 10.0674 13.9242 10.1278 13.8644 10.2147C13.8046 10.3015 13.7808 10.4082 13.7979 10.5123C13.815 10.6164 13.8717 10.7098 13.9562 10.773C14.0406 10.8362 14.1463 10.8642 14.251 10.8513H14.2493Z" fill="#FB3747"/>
<path d="M18.4446 18.0723C18.1843 18.0723 17.9298 18.1495 17.7134 18.2941C17.4969 18.4387 17.3282 18.6443 17.2286 18.8848C17.129 19.1253 17.1029 19.3899 17.1537 19.6452C17.2045 19.9005 17.3298 20.1351 17.5139 20.3191C17.698 20.5032 17.9325 20.6286 18.1878 20.6793C18.4431 20.7301 18.7078 20.7041 18.9483 20.6044C19.1888 20.5048 19.3944 20.3361 19.539 20.1197C19.6836 19.9032 19.7608 19.6488 19.7608 19.3885C19.7604 19.0395 19.6216 18.705 19.3748 18.4582C19.1281 18.2115 18.7935 18.0727 18.4446 18.0723ZM18.4446 19.8881C18.3458 19.8881 18.2492 19.8588 18.167 19.8039C18.0848 19.749 18.0208 19.671 17.9829 19.5797C17.9451 19.4884 17.9352 19.3879 17.9545 19.291C17.9738 19.194 18.0214 19.105 18.0913 19.0351C18.1612 18.9652 18.2502 18.9176 18.3471 18.8984C18.4441 18.8791 18.5445 18.889 18.6358 18.9268C18.7271 18.9646 18.8052 19.0287 18.8601 19.1108C18.915 19.193 18.9443 19.2896 18.9443 19.3885C18.9443 19.521 18.8917 19.6481 18.7979 19.7418C18.7042 19.8355 18.5771 19.8881 18.4446 19.8881Z" fill="#FB3747"/>
<path d="M12.7045 17.2347H19.305C19.4045 17.2347 19.503 17.2151 19.595 17.177C19.6869 17.1389 19.7704 17.0831 19.8408 17.0128C19.9111 16.9424 19.967 16.8589 20.005 16.7669C20.0431 16.675 20.0627 16.5765 20.0627 16.477V12.7636C20.0627 12.6641 20.0431 12.5655 20.005 12.4736C19.967 12.3817 19.9111 12.2981 19.8408 12.2278C19.7704 12.1574 19.6869 12.1016 19.595 12.0635C19.503 12.0255 19.4045 12.0059 19.305 12.0059H12.7045C12.605 12.0059 12.5065 12.0255 12.4145 12.0635C12.3226 12.1016 12.2391 12.1574 12.1687 12.2278C12.0983 12.2981 12.0425 12.3817 12.0045 12.4736C11.9664 12.5655 11.9468 12.6641 11.9468 12.7636V16.477C11.9468 16.5765 11.9664 16.675 12.0045 16.7669C12.0425 16.8589 12.0983 16.9424 12.1687 17.0128C12.2391 17.0831 12.3226 17.1389 12.4145 17.177C12.5065 17.2151 12.605 17.2347 12.7045 17.2347ZM12.7633 12.8256H19.2462V16.4182H12.7633V12.8256Z" fill="#FB3747"/>
<path d="M13.5657 18.0723C13.3054 18.0723 13.0509 18.1495 12.8345 18.2941C12.618 18.4387 12.4493 18.6443 12.3497 18.8848C12.2501 19.1253 12.224 19.3899 12.2748 19.6452C12.3256 19.9005 12.4509 20.1351 12.635 20.3191C12.8191 20.5032 13.0536 20.6286 13.3089 20.6793C13.5642 20.7301 13.8289 20.7041 14.0694 20.6044C14.3099 20.5048 14.5154 20.3361 14.6601 20.1197C14.8047 19.9032 14.8819 19.6488 14.8819 19.3885C14.8815 19.0395 14.7426 18.705 14.4959 18.4582C14.2492 18.2115 13.9146 18.0727 13.5657 18.0723ZM13.5657 19.8881C13.4669 19.8881 13.3703 19.8588 13.2881 19.8039C13.2059 19.749 13.1419 19.671 13.104 19.5797C13.0662 19.4884 13.0563 19.3879 13.0756 19.291C13.0949 19.194 13.1425 19.105 13.2124 19.0351C13.2822 18.9652 13.3713 18.9176 13.4682 18.8984C13.5651 18.8791 13.6656 18.889 13.7569 18.9268C13.8482 18.9646 13.9263 19.0287 13.9812 19.1108C14.0361 19.193 14.0654 19.2896 14.0654 19.3885C14.0654 19.4541 14.0525 19.5191 14.0274 19.5797C14.0022 19.6403 13.9654 19.6954 13.919 19.7418C13.8726 19.7882 13.8175 19.825 13.7569 19.8501C13.6963 19.8752 13.6313 19.8881 13.5657 19.8881Z" fill="#FB3747"/>
<path d="M9.75379 16.5586H10.2796V19.996C10.2796 20.0532 10.2796 20.1103 10.2796 20.1593C10.3106 20.553 10.4438 20.9318 10.6661 21.2583C10.8883 21.5848 11.1919 21.8477 11.5468 22.0209V22.9337C11.5468 23.2163 11.6589 23.4873 11.8586 23.6872C12.0582 23.8871 12.329 23.9997 12.6115 24.0001H13.5342C13.8164 23.9997 14.087 23.8873 14.2865 23.6878C14.4861 23.4882 14.5984 23.2176 14.5989 22.9354V22.2822H17.4109V22.9354C17.4113 23.2176 17.5236 23.4882 17.7232 23.6878C17.9228 23.8873 18.1933 23.9997 18.4756 24.0001H19.3982C19.6804 23.9997 19.951 23.8873 20.1506 23.6878C20.3502 23.4882 20.4625 23.2176 20.4629 22.9354V22.0209C20.8149 21.8471 21.1157 21.5849 21.3361 21.2601C21.5565 20.9352 21.6889 20.5588 21.7203 20.1675C21.7203 20.1103 21.7203 20.0548 21.7203 20.0042V16.5586H22.2461C22.5895 16.5564 22.9182 16.4192 23.1612 16.1765C23.4041 15.9339 23.5418 15.6053 23.5444 15.262V14.0176C23.5418 13.6743 23.4041 13.3457 23.1612 13.1031C22.9182 12.8604 22.5895 12.7232 22.2461 12.7211H21.7317V10.8954C21.7343 10.3924 21.5761 9.90176 21.2803 9.49494C20.9845 9.08812 20.5666 8.78639 20.0873 8.63369C17.4313 7.78877 14.5785 7.78877 11.9224 8.63369C11.4432 8.78639 11.0252 9.08812 10.7294 9.49494C10.4336 9.90176 10.2755 10.3924 10.278 10.8954V12.7211H9.75379C9.41042 12.7232 9.0817 12.8604 8.83874 13.1031C8.59579 13.3457 8.45814 13.6743 8.45557 14.0176V15.2603C8.45771 15.604 8.59517 15.933 8.83817 16.176C9.08117 16.419 9.41014 16.5564 9.75379 16.5586ZM22.2559 13.5375C22.3828 13.5396 22.5038 13.5908 22.5937 13.6804C22.6835 13.7699 22.7351 13.8908 22.7377 14.0176V15.2603C22.7351 15.3872 22.6835 15.5081 22.5937 15.5976C22.5038 15.6872 22.3828 15.7384 22.2559 15.7404H21.7317V13.5375H22.2559ZM11.0945 10.8954C11.0923 10.5656 11.1956 10.2437 11.3892 9.97674C11.5827 9.70973 11.8565 9.51152 12.1706 9.41099C14.6672 8.61599 17.3491 8.61599 19.8456 9.41099C20.1597 9.51152 20.4335 9.70973 20.6271 9.97674C20.8207 10.2437 20.9239 10.5656 20.9218 10.8954V19.996C20.9218 20.033 20.9218 20.0706 20.9218 20.1087C20.8956 20.3927 20.7873 20.663 20.6101 20.8866C20.433 21.1101 20.1946 21.2773 19.924 21.3677C19.8448 21.396 19.7763 21.448 19.7277 21.5167C19.6792 21.5854 19.6531 21.6674 19.6529 21.7515V22.9337C19.6532 22.967 19.6467 23 19.6339 23.0308C19.6211 23.0615 19.6023 23.0894 19.5785 23.1127C19.5548 23.136 19.5266 23.1543 19.4956 23.1665C19.4646 23.1786 19.4315 23.1845 19.3982 23.1836H18.4756C18.4097 23.1836 18.3466 23.1574 18.3001 23.1109C18.2535 23.0643 18.2274 23.0012 18.2274 22.9354V21.8772C18.2274 21.7689 18.1843 21.6651 18.1078 21.5885C18.0312 21.512 17.9274 21.469 17.8191 21.469H14.1906C14.0823 21.469 13.9785 21.512 13.9019 21.5885C13.8254 21.6651 13.7824 21.7689 13.7824 21.8772V22.9419C13.7807 23.0066 13.7538 23.0681 13.7074 23.1132C13.661 23.1584 13.5989 23.1836 13.5342 23.1836H12.6115C12.5457 23.1836 12.4826 23.1574 12.436 23.1109C12.3895 23.0643 12.3633 23.0012 12.3633 22.9354V21.7531C12.363 21.6679 12.3361 21.585 12.2863 21.5159C12.2365 21.4468 12.1664 21.395 12.0857 21.3677C11.8185 21.2745 11.5839 21.1061 11.4101 20.8827C11.2363 20.6594 11.1307 20.3906 11.1059 20.1087C11.1059 20.0717 11.1059 20.0341 11.1059 19.996L11.0945 10.8954ZM9.27206 14.0176C9.27458 13.8908 9.32619 13.7699 9.41604 13.6804C9.50588 13.5908 9.62696 13.5396 9.75379 13.5375H10.2796V15.7421H9.75379C9.62696 15.74 9.50588 15.6888 9.41604 15.5992C9.32619 15.5097 9.27458 15.3888 9.27206 15.262V14.0176Z" fill="#FB3747"/>
</svg>
