<svg width="20" height="20" viewBox="0 0 20 20" fill="none" xmlns="http://www.w3.org/2000/svg">
<path d="M17.8931 15.0114C17.8931 15.2964 17.8297 15.5893 17.6952 15.8743C17.5606 16.1593 17.3864 16.4285 17.1568 16.6818C16.7689 17.1093 16.3414 17.4181 15.8585 17.616C15.3835 17.8139 14.8689 17.9168 14.3147 17.9168C13.5072 17.9168 12.6443 17.7268 11.7339 17.3389C10.8235 16.951 9.91308 16.4285 9.01058 15.7714C8.10016 15.1064 7.23725 14.3702 6.41391 13.5547C5.5985 12.7314 4.86225 11.8685 4.20516 10.966C3.556 10.0635 3.0335 9.161 2.6535 8.26641C2.2735 7.36391 2.0835 6.501 2.0835 5.67766C2.0835 5.13933 2.1785 4.62475 2.3685 4.14975C2.5585 3.66683 2.85933 3.2235 3.27891 2.82766C3.78558 2.32891 4.33975 2.0835 4.92558 2.0835C5.14725 2.0835 5.36891 2.131 5.56683 2.226C5.77266 2.321 5.95475 2.4635 6.09725 2.66933L7.93391 5.25808C8.07641 5.456 8.17933 5.63808 8.25058 5.81225C8.32183 5.9785 8.36141 6.14475 8.36141 6.29516C8.36141 6.48516 8.306 6.67516 8.19516 6.85725C8.09225 7.03933 7.94183 7.22933 7.75183 7.41933L7.15016 8.04475C7.06308 8.13183 7.0235 8.23475 7.0235 8.36141C7.0235 8.42475 7.03141 8.48016 7.04725 8.5435C7.071 8.60683 7.09475 8.65433 7.11058 8.70183C7.25308 8.96308 7.4985 9.3035 7.84683 9.71516C8.20308 10.1268 8.58308 10.5464 8.99475 10.966C9.42225 11.3856 9.83391 11.7735 10.2535 12.1297C10.6652 12.4781 11.0056 12.7156 11.2747 12.8581C11.3143 12.8739 11.3618 12.8977 11.4172 12.9214C11.4806 12.9452 11.5439 12.9531 11.6152 12.9531C11.7497 12.9531 11.8527 12.9056 11.9397 12.8185L12.5414 12.2247C12.7393 12.0268 12.9293 11.8764 13.1114 11.7814C13.2935 11.6706 13.4756 11.6152 13.6735 11.6152C13.8239 11.6152 13.9822 11.6468 14.1564 11.7181C14.3306 11.7893 14.5127 11.8922 14.7106 12.0268L17.331 13.8872C17.5368 14.0297 17.6793 14.196 17.7664 14.3939C17.8456 14.5918 17.8931 14.7897 17.8931 15.0114Z" stroke="white" stroke-width="0.9" stroke-miterlimit="10"/>
<path d="M15.1458 7.62533C15.1458 7.15033 14.7737 6.42199 14.2196 5.82824C13.7129 5.28199 13.04 4.85449 12.375 4.85449" stroke="white" stroke-width="0.9" stroke-linecap="round" stroke-linejoin="round"/>
<path d="M17.9167 7.62516C17.9167 4.56141 15.4387 2.0835 12.375 2.0835" stroke="white" stroke-width="0.9" stroke-linecap="round" stroke-linejoin="round"/>
</svg>
