<svg width="15" height="15" viewBox="0 0 15 15" fill="none" xmlns="http://www.w3.org/2000/svg">
<g clip-path="url(#clip0_223_9366)">
<path d="M14.3855 3.28034H13.6819V2.69564C13.6819 2.2321 13.3048 1.85498 12.8413 1.85498H12.1707C11.7071 1.85498 11.3301 2.2321 11.3301 2.69564V5.10258H10.2063V4.45637C10.2063 3.98738 9.82477 3.60587 9.3558 3.60587C9.17153 3.60587 9.00097 3.66498 8.86161 3.76496C8.72459 3.47863 8.43202 3.28034 8.09396 3.28034C7.77437 3.28034 7.49545 3.45752 7.35017 3.71882C7.2066 3.60813 7.02701 3.54193 6.83209 3.54193C6.53627 3.54193 6.2755 3.69391 6.12311 3.92373C5.97429 3.79608 5.78118 3.71873 5.57024 3.71873C5.10125 3.71873 4.71974 4.10024 4.71974 4.56924V5.10264H3.67004V4.48278C3.67004 4.36148 3.57172 4.2632 3.45046 4.2632C3.32919 4.2632 3.23088 4.36148 3.23088 4.48278V9.5838C3.23088 9.80519 3.05077 9.98527 2.8294 9.98527H2.15872C1.93733 9.98527 1.75724 9.80519 1.75724 9.5838V2.69564C1.75724 2.47425 1.93736 2.29414 2.15872 2.29414H2.82931C3.05071 2.29414 3.23079 2.47425 3.23079 2.69564V3.54697C3.23079 3.66826 3.3291 3.76654 3.45037 3.76654C3.57164 3.76654 3.66995 3.66826 3.66995 3.54697V2.69564C3.66995 2.2321 3.29283 1.85498 2.82931 1.85498H2.15872C1.69518 1.85498 1.31809 2.2321 1.31809 2.69564V3.28034H0.614469C0.275644 3.28034 0 3.55598 0 3.89478V8.3846C0 8.72343 0.275644 8.99907 0.614469 8.99907H1.31809V9.58377C1.31809 10.0473 1.69521 10.4244 2.15872 10.4244H2.82931C3.29286 10.4244 3.66995 10.0473 3.66995 9.58377V7.17683H4.42243V7.57778C4.42243 7.78384 4.49451 7.98497 4.62544 8.14415L5.30736 8.97322V12.9258C5.30736 13.0471 5.40567 13.1454 5.52694 13.1454C5.64821 13.1454 5.74652 13.0471 5.74652 12.9258V8.89452C5.74652 8.84364 5.72884 8.79434 5.69651 8.75502L4.96458 7.86514C4.89815 7.78439 4.86156 7.68233 4.86156 7.57778V7.17683L9.01417 7.20222C9.13544 7.20222 9.23375 7.10393 9.23375 6.98264C9.23375 6.86134 9.13544 6.76306 9.01417 6.76306H8.01509C7.80898 6.76306 7.64128 6.59536 7.64128 6.38928C7.64128 6.18317 7.80898 6.01547 8.01509 6.01547H9.90308C10.0328 6.01547 10.1384 6.12098 10.1384 6.25071V7.57776C10.1384 7.6823 10.1018 7.78439 10.0353 7.86511L9.3034 8.75499C9.27108 8.79431 9.25339 8.84358 9.25339 8.89449V9.47363C9.25339 9.59492 9.35171 9.6932 9.47297 9.6932C9.59424 9.6932 9.69255 9.59492 9.69255 9.47363V8.97319L10.3745 8.14412C10.5054 7.98494 10.5775 7.78381 10.5775 7.57776V7.1768H11.33V9.58374C11.33 10.0473 11.7071 10.4244 12.1706 10.4244H12.8412C13.3047 10.4244 13.6818 10.0473 13.6818 9.58374V8.99904H14.3854C14.7243 8.99904 14.9999 8.7234 14.9999 8.38457V3.89478C15 3.55598 14.7244 3.28034 14.3855 3.28034ZM0.614469 8.55992C0.517796 8.55992 0.439157 8.48125 0.439157 8.3846V3.89478C0.439157 3.7981 0.517796 3.7195 0.614469 3.7195H1.31809V8.55992H0.614469ZM9.35577 4.04503C9.58261 4.04503 9.76712 4.22956 9.76712 4.45637V5.27388C9.76712 5.38982 9.71793 5.4989 9.63376 5.57634H9.07776C8.99359 5.4989 8.9444 5.38982 8.9444 5.27388V4.45637C8.9444 4.22956 9.12894 4.04503 9.35577 4.04503ZM7.68256 4.13084C7.68256 3.90403 7.86709 3.7195 8.0939 3.7195C8.32071 3.7195 8.50525 3.90403 8.50525 4.13084V5.27388C8.50525 5.38982 8.45606 5.4989 8.37189 5.57634H8.01512C7.95451 5.57634 7.89549 5.58322 7.83863 5.59587C7.74088 5.51869 7.68253 5.40123 7.68253 5.27388L7.68256 4.13084ZM6.42068 4.3924C6.42068 4.16559 6.60522 3.98106 6.83203 3.98106C7.05884 3.98106 7.2434 4.16559 7.2434 4.3924V5.27385C7.2434 5.50069 7.05887 5.68522 6.83203 5.68522C6.60519 5.68522 6.42068 5.50069 6.42068 5.27385V4.3924ZM5.15881 4.56921C5.15881 4.3424 5.34334 4.15786 5.57015 4.15786C5.79696 4.15786 5.9815 4.3424 5.9815 4.56921V5.27388C5.9815 5.50072 5.79696 5.68525 5.57015 5.68525C5.34334 5.68525 5.15881 5.50072 5.15881 5.27388V4.56921ZM3.66998 5.54173H4.76313C4.87564 5.87983 5.19479 6.12438 5.57018 6.12438C5.82027 6.12438 6.04547 6.01582 6.20122 5.84344C6.35698 6.01579 6.582 6.12438 6.83206 6.12438C7.01319 6.12438 7.18086 6.06691 7.31894 5.97C7.24489 6.0925 7.20221 6.23598 7.20221 6.38928C7.20221 6.51388 7.23046 6.63202 7.28079 6.73765H3.66998V5.54173ZM10.5776 6.73768V6.25074C10.5776 5.95984 10.3924 5.7114 10.1338 5.61698C10.1446 5.59241 10.1543 5.56729 10.1627 5.54173H11.3301V6.73768H10.5776ZM14.5608 8.3846C14.5608 8.48128 14.4822 8.55992 14.3855 8.55992H13.6819V7.92536C13.6819 7.80407 13.5836 7.70578 13.4623 7.70578C13.3411 7.70578 13.2428 7.80407 13.2428 7.92536V9.58377C13.2428 9.80516 13.0626 9.98524 12.8413 9.98524H12.1707C11.9493 9.98524 11.7692 9.80516 11.7692 9.58377V2.69564C11.7692 2.47425 11.9493 2.29414 12.1707 2.29414H12.8413C13.0627 2.29414 13.2428 2.47425 13.2428 2.69564V6.98958C13.2428 7.11087 13.3411 7.20916 13.4623 7.20916C13.5836 7.20916 13.6819 7.11087 13.6819 6.98958V3.7195H14.3855C14.4822 3.7195 14.5608 3.79813 14.5608 3.89478V8.3846Z" fill="#F2002A"/>
<path d="M9.473 10.1899C9.35173 10.1899 9.25342 10.2882 9.25342 10.4095V12.9259C9.25342 13.0472 9.35173 13.1455 9.473 13.1455C9.59426 13.1455 9.69258 13.0472 9.69258 12.9259V10.4095C9.69258 10.2882 9.59429 10.1899 9.473 10.1899Z" fill="#F2002A"/>
</g>
<defs>
<clipPath id="clip0_223_9366">
<rect width="15" height="15" fill="white"/>
</clipPath>
</defs>
</svg>
