<svg width="32" height="32" viewBox="0 0 32 32" fill="none" xmlns="http://www.w3.org/2000/svg">
<rect width="32" height="32" rx="16" fill="#FFE9EE"/>
<path d="M16.6638 12.1226H15.3397C15.1749 12.1226 15.0418 11.9895 15.0418 11.8247V11.2937H14.5108C14.346 11.2937 14.2129 11.1606 14.2129 10.9958V9.67174C14.2129 9.50696 14.346 9.37381 14.5108 9.37381H15.0418V8.84285C15.0418 8.67807 15.1749 8.54492 15.3397 8.54492H16.6638C16.8285 8.54492 16.9617 8.67808 16.9617 8.84285V9.37381H17.4927C17.6574 9.37381 17.7906 9.50697 17.7906 9.67174V10.9958C17.7906 11.1606 17.6574 11.2937 17.4927 11.2937H16.9617V11.8247C16.9617 11.9895 16.8285 12.1226 16.6638 12.1226Z" fill="#FB3747"/>
<path d="M15.637 11.5258H16.3644V10.9948C16.3644 10.83 16.4975 10.6969 16.6623 10.6969H17.1933V9.96951H16.6623C16.4975 9.96951 16.3644 9.83636 16.3644 9.67159V9.14062H15.637V9.67159C15.637 9.83637 15.5038 9.96951 15.3391 9.96951H14.8081V10.6969H15.3391C15.5038 10.6969 15.637 10.83 15.637 10.9948V11.5258Z" fill="#FB3747"/>
<path d="M10.9301 24.0528H21.0717V13.3155H10.9301V24.0528ZM21.3695 24.6495H10.6323C10.4675 24.6495 10.3343 24.5163 10.3343 24.3515L10.3335 13.0167C10.3335 12.8519 10.4667 12.7188 10.6314 12.7188H21.3687C21.5335 12.7188 21.6666 12.8519 21.6666 13.0167V24.3507C21.6666 24.5155 21.5335 24.6486 21.3687 24.6486L21.3695 24.6495Z" fill="#FB3747"/>
<path d="M14.8077 24.0526H17.1936V21.6667H14.8077V24.0526ZM17.4925 24.6493H14.5098C14.3451 24.6493 14.2119 24.5162 14.2119 24.3514V21.3687C14.2119 21.2039 14.3451 21.0708 14.5098 21.0708H17.4925C17.6573 21.0708 17.7905 21.204 17.7905 21.3687V24.3514C17.7905 24.5162 17.6573 24.6493 17.4925 24.6493Z" fill="#FB3747"/>
<path d="M13.6152 12.7192H18.387V7.94649H13.6152V12.7192ZM18.6859 13.3159H13.3173C13.1525 13.3159 13.0194 13.1828 13.0194 13.018L13.0186 7.64851C13.0186 7.48373 13.1517 7.35059 13.3165 7.35059H18.6851C18.8499 7.35059 18.983 7.48374 18.983 7.64851V13.0171C18.983 13.1819 18.8499 13.3151 18.6851 13.3151L18.6859 13.3159Z" fill="#FB3747"/>
<path d="M13.0192 15.9998H14.2126V14.8064H13.0192V15.9998ZM14.5105 16.5966H12.7213C12.5565 16.5966 12.4233 16.4634 12.4233 16.2986V14.5094C12.4233 14.3446 12.5565 14.2114 12.7213 14.2114H14.5105C14.6753 14.2114 14.8085 14.3446 14.8085 14.5094V16.2986C14.8085 16.4634 14.6753 16.5966 14.5105 16.5966Z" fill="#FB3747"/>
<path d="M17.7902 15.9998H18.9836V14.8064H17.7902V15.9998ZM19.2815 16.5966H17.4923C17.3275 16.5966 17.1943 16.4634 17.1943 16.2986V14.5094C17.1943 14.3446 17.3275 14.2114 17.4923 14.2114H19.2815C19.4463 14.2114 19.5795 14.3446 19.5795 14.5094V16.2986C19.5795 16.4634 19.4463 16.5966 19.2815 16.5966Z" fill="#FB3747"/>
<path d="M13.0192 19.2806H14.2126V18.0872H13.0192V19.2806ZM14.5105 19.8773H12.7213C12.5565 19.8773 12.4233 19.7442 12.4233 19.5794V17.7901C12.4233 17.6253 12.5565 17.4922 12.7213 17.4922H14.5105C14.6753 17.4922 14.8085 17.6253 14.8085 17.7901V19.5794C14.8085 19.7442 14.6753 19.8773 14.5105 19.8773Z" fill="#FB3747"/>
<path d="M17.7902 19.2806H18.9836V18.0872H17.7902V19.2806ZM19.2815 19.8773H17.4923C17.3275 19.8773 17.1943 19.7442 17.1943 19.5794V17.7901C17.1943 17.6253 17.3275 17.4922 17.4923 17.4922H19.2815C19.4463 17.4922 19.5795 17.6253 19.5795 17.7901V19.5794C19.5795 19.7442 19.4463 19.8773 19.2815 19.8773Z" fill="#FB3747"/>
</svg>
