<svg width="15" height="15" viewBox="0 0 15 15" fill="none" xmlns="http://www.w3.org/2000/svg">
<g clip-path="url(#clip0_223_9382)">
<path d="M14.7433 10.1256C14.6982 9.95646 14.5898 9.81501 14.4383 9.72738C14.2867 9.63973 14.1101 9.61635 13.9409 9.66161L12.1314 10.1464L11.907 9.30896L12.2189 9.22538C12.344 9.19186 12.4182 9.06337 12.3847 8.93833C12.3512 8.81329 12.2226 8.73914 12.0976 8.7726L11.5598 8.91671C11.5596 8.91674 11.5595 8.91677 11.5593 8.91683C11.5591 8.91688 11.5589 8.91694 11.5588 8.917L11.021 9.06111C10.8959 9.09463 10.8217 9.22312 10.8552 9.34816C10.8833 9.45287 10.978 9.52195 11.0815 9.52195C11.1016 9.52195 11.122 9.51935 11.1423 9.51393L11.4542 9.43034L11.6786 10.2678L5.13524 12.0211L4.91086 11.1837L5.22281 11.1001C5.34785 11.0666 5.42206 10.9381 5.38855 10.813C5.35503 10.688 5.2265 10.6139 5.10149 10.6473L4.56346 10.7914C4.56334 10.7915 4.56322 10.7915 4.56314 10.7915C4.56302 10.7915 4.56293 10.7916 4.56281 10.7916L4.0248 10.9358C3.89977 10.9693 3.82556 11.0978 3.85907 11.2228C3.88714 11.3275 3.98183 11.3966 4.08533 11.3966C4.10543 11.3966 4.12582 11.394 4.14612 11.3886L4.45808 11.305L4.68249 12.1425L2.87323 12.6272C2.70413 12.6724 2.56269 12.7808 2.47506 12.9323C2.38743 13.0838 2.36405 13.2604 2.40923 13.4296C2.4544 13.5987 2.56274 13.7401 2.7143 13.8277C2.81537 13.8862 2.92755 13.916 3.04128 13.916C3.09806 13.916 3.15522 13.9086 3.21155 13.8935L7.85566 12.6491L7.5919 13.9261C7.57767 13.9951 7.59522 14.0669 7.63972 14.1215C7.68425 14.1762 7.75099 14.2079 7.82144 14.2079H9.54847C9.61893 14.2079 9.68569 14.1762 9.7302 14.1215C9.7747 14.0669 9.79225 13.9951 9.77801 13.9261L9.42727 12.228L14.2794 10.9279C14.6285 10.8345 14.8366 10.4746 14.7433 10.1256ZM9.26071 13.7391H8.10914L8.36235 12.5133L8.97369 12.3495L9.26071 13.7391ZM14.2717 10.3881C14.2467 10.4313 14.2065 10.4621 14.1582 10.475L3.09053 13.4406C3.04236 13.4534 2.99206 13.4468 2.94896 13.4218C2.90578 13.3969 2.87496 13.3566 2.8621 13.3085C2.83553 13.2091 2.89479 13.1066 2.99437 13.08L12.0261 10.6599C12.0262 10.6599 12.0262 10.6599 12.0263 10.6599C12.0264 10.6599 12.0265 10.6598 12.0266 10.6598L14.0621 10.1144C14.0781 10.1101 14.0944 10.108 14.1105 10.108C14.1429 10.108 14.1749 10.1165 14.2036 10.1331C14.2468 10.1581 14.2776 10.1984 14.2905 10.2465C14.3033 10.2947 14.2967 10.345 14.2717 10.3881ZM2.4467 8.00388C2.4467 7.81154 2.30607 7.65182 2.12232 7.62106L3.35525 2.10428H4.2082V6.29435H4.01142C3.76371 6.29435 3.56221 6.49585 3.56221 6.74356V7.25938C3.56221 7.50706 3.76371 7.70856 4.01142 7.70856H7.45441C7.70212 7.70856 7.90362 7.50706 7.90362 7.25938V6.74356C7.90362 6.49585 7.70212 6.29435 7.45441 6.29435H7.2576V2.10428H8.11058L9.34315 7.61947C9.16034 7.64537 9.01913 7.80243 9.01913 7.99231V8.40647C9.01913 8.61437 9.18823 8.78347 9.39612 8.78347H10.8544C11.0623 8.78347 11.2314 8.61437 11.2314 8.40647V7.99231C11.2314 7.78441 11.0623 7.61531 10.8544 7.61531H10.683L9.37837 1.77753C9.24876 1.19754 8.74444 0.79248 8.15197 0.79248H3.31389C2.72139 0.79248 2.21707 1.19754 2.08749 1.7775L0.782812 7.61528H0.622969C0.408721 7.61528 0.234375 7.7896 0.234375 8.00388V8.45156C0.234375 8.66581 0.408691 8.84016 0.622969 8.84016H2.05811C2.27235 8.84016 2.4467 8.66584 2.4467 8.45156V8.00388ZM7.43487 7.23984H4.03096V6.76312H7.43487V7.23984ZM6.78885 6.29435H4.67695V2.10428H6.78885V6.29435ZM10.7627 8.31469H9.48788V8.08403H10.7627V8.31469ZM2.54496 1.87978C2.62632 1.51559 2.94252 1.26126 3.31389 1.26126H8.15197C8.52334 1.26126 8.83954 1.51562 8.9209 1.87978L10.2027 7.61528H9.82257L8.55835 1.95873C8.51522 1.7654 8.35189 1.63553 8.15194 1.63553H3.31386C3.11399 1.63553 2.95066 1.7654 2.90745 1.95864L1.64329 7.61528H1.26313L2.54496 1.87978ZM1.97795 8.37141H0.703125V8.08403H1.97795V8.37141Z" fill="#F2002A"/>
</g>
<defs>
<clipPath id="clip0_223_9382">
<rect width="15" height="15" fill="white"/>
</clipPath>
</defs>
</svg>
