<svg width="32" height="32" viewBox="0 0 32 32" fill="none" xmlns="http://www.w3.org/2000/svg">
<rect width="32" height="32" rx="16" fill="#FFE9EE"/>
<path d="M23.2724 22.566H22.2365V12.1906C22.2365 12.1168 22.1967 12.0497 22.131 12.0094C22.0677 11.9692 21.9857 11.9647 21.9154 11.9938L19.5553 13.0318V9.74773C19.5553 9.65378 19.492 9.571 19.3983 9.54192C17.1436 8.81936 14.8561 8.81936 12.6015 9.54192C12.5077 9.571 12.4445 9.65378 12.4445 9.74773V13.0318L10.0844 11.9938C10.014 11.9647 9.93202 11.9692 9.86874 12.0094C9.80311 12.0497 9.76327 12.1168 9.76327 12.1906V22.566H8.72734C8.60078 22.566 8.5 22.6622 8.5 22.783C8.5 22.9016 8.60078 23 8.72734 23H23.2727C23.3992 23 23.5 22.9016 23.5 22.783C23.5 22.6622 23.3992 22.566 23.2727 22.566H23.2724ZM15.7724 19.4744V22.566H14.6756V19.4744H15.7724ZM16.2271 19.4744H17.324V22.566H16.2271V19.4744ZM17.7763 19.4744H18.1677C18.2943 19.4744 18.3951 19.3782 18.3951 19.2574C18.3951 19.1366 18.2943 19.0404 18.1677 19.0404H13.8318C13.7053 19.0404 13.6045 19.1366 13.6045 19.2574C13.6045 19.3782 13.7053 19.4744 13.8318 19.4744H14.2232V22.566H12.899V16.5708C14.9569 15.8639 17.0428 15.8639 19.1006 16.5708V22.566H17.7764L17.7763 19.4744ZM12.8989 14.4411V13.2331C14.9568 12.524 17.0427 12.524 19.1005 13.2331V14.4411C17.0404 13.7678 14.9592 13.7678 12.8989 14.4411ZM12.8989 9.90436C14.9568 9.27799 17.0427 9.27799 19.1005 9.90436V11.1012C17.0404 10.4301 14.9592 10.4301 12.8989 11.1012V9.90436ZM11.1903 22.566V15.5507C11.1903 15.4299 11.2934 15.3337 11.4176 15.3337C11.5442 15.3337 11.645 15.4299 11.645 15.5507V22.566H11.1903ZM20.3544 22.566V15.5507C20.3544 15.4299 20.4551 15.3337 20.5817 15.3337C20.7059 15.3337 20.809 15.4299 20.809 15.5507V22.566H20.3544Z" fill="#FB3747"/>
</svg>
