<svg width="32" height="32" viewBox="0 0 32 32" fill="none" xmlns="http://www.w3.org/2000/svg">
<rect width="32" height="32" rx="16" fill="white"/>
<path d="M19.2026 10.8886C19.3251 10.7661 19.3251 10.5674 19.2026 10.4449C19.08 10.3224 18.8814 10.3224 18.7589 10.4449L18.1314 11.0724C18.0089 11.1949 18.0089 11.3935 18.1314 11.516C18.2539 11.6385 18.4526 11.6385 18.5751 11.516L19.2026 10.8886Z" fill="#FB3747"/>
<path fill-rule="evenodd" clip-rule="evenodd" d="M9.56863 9.41188C9.56863 8.89208 9.98999 8.4707 10.5098 8.4707H23.0588C23.5786 8.4707 24 8.89208 24 9.41188V22.5884C24 23.0589 23.5294 23.5295 23.0588 23.5295H9.88235C9.36256 23.5295 8.94118 23.1082 8.94118 22.5884V20.6885C8.94118 20.4937 8.97725 20.2945 9.09724 20.141C9.21096 19.9956 9.36189 19.8717 9.56863 19.8089V18.2703C9.40211 18.4193 9.18223 18.5099 8.94118 18.5099H8.31373C8.14046 18.5099 8 18.3695 8 18.1962V17.5687C8 17.0489 8.42138 16.6276 8.94118 16.6276C8.42138 16.6276 8 16.2062 8 15.6864V15.0589C8 14.8857 8.14046 14.7452 8.31373 14.7452H8.94118C9.46097 14.7452 9.88235 15.1666 9.88235 15.6864C9.88235 15.1666 10.3037 14.7452 10.8235 14.7452H11.451C11.6243 14.7452 11.7647 14.8857 11.7647 15.0589V15.6864C11.7647 16.2062 11.3433 16.6276 10.8235 16.6276C11.3433 16.6276 11.7647 17.0489 11.7647 17.5687V18.1962C11.7647 18.3695 11.6243 18.5099 11.451 18.5099H10.8235C10.5825 18.5099 10.3626 18.4193 10.1961 18.2703V19.8089C10.3963 19.8697 10.5442 19.9878 10.6566 20.1274C10.7377 20.228 10.9094 20.228 10.9905 20.1274C11.155 19.9232 11.3954 19.7648 11.7647 19.7648C12.134 19.7648 12.3744 19.9232 12.5389 20.1274C12.62 20.228 12.7917 20.228 12.8728 20.1274C13.0373 19.9232 13.2778 19.7648 13.6471 19.7648C14.0163 19.7648 14.2568 19.9232 14.4213 20.1274C14.5024 20.228 14.6741 20.228 14.7552 20.1274C14.9197 19.9232 15.1601 19.7648 15.5294 19.7648C15.8987 19.7648 16.1391 19.9232 16.3037 20.1274C16.3848 20.228 16.5564 20.228 16.6375 20.1274C16.802 19.9232 17.0425 19.7648 17.4118 19.7648C17.7811 19.7648 18.0215 19.9232 18.186 20.1274C18.2671 20.228 18.4388 20.228 18.5199 20.1274C18.6844 19.9232 18.9248 19.7648 19.2941 19.7648C19.6634 19.7648 19.9038 19.9232 20.0684 20.1274C20.1495 20.228 20.3211 20.228 20.4022 20.1274C20.5667 19.9232 20.8072 19.7648 21.1765 19.7648C21.5042 19.7648 21.7928 20.0143 21.9613 20.1986C22.0393 20.2838 22.1848 20.2766 22.2479 20.1799C22.2628 20.1572 22.2757 20.1383 22.2846 20.1274C22.397 19.9878 22.5449 19.8697 22.7451 19.8089V15.3727H16.7843V18.5099C16.7843 18.6832 16.6439 18.8236 16.4706 18.8236C16.2973 18.8236 16.1569 18.6832 16.1569 18.5099V15.3727H13.3333C13.1601 15.3727 13.0196 15.2322 13.0196 15.0589C13.0196 14.8857 13.1601 14.7452 13.3333 14.7452H16.1569V9.09815H10.5098C10.3365 9.09815 10.1961 9.23861 10.1961 9.41188V13.4903C10.1961 13.6636 10.0556 13.804 9.88235 13.804C9.70908 13.804 9.56863 13.6636 9.56863 13.4903V9.41188ZM16.7843 14.7452H22.7451V9.41188C22.7451 9.23861 22.6046 9.09815 22.4314 9.09815H16.7843V14.7452ZM10.5098 16.6276C10.5098 16.9741 10.2289 17.255 9.88235 17.255C9.53582 17.255 9.2549 16.9741 9.2549 16.6276C9.2549 16.281 9.53582 16.0001 9.88235 16.0001C10.2289 16.0001 10.5098 16.281 10.5098 16.6276Z" fill="#FB3747"/>
<path d="M12.6142 10.4449C12.7367 10.5674 12.7367 10.7661 12.6142 10.8886L11.9867 11.516C11.8642 11.6385 11.6656 11.6385 11.5431 11.516C11.4205 11.3935 11.4205 11.1949 11.5431 11.0724L12.1705 10.4449C12.293 10.3224 12.4917 10.3224 12.6142 10.4449Z" fill="#FB3747"/>
</svg>
