<svg width="16" height="17" viewBox="0 0 16 17" fill="none" xmlns="http://www.w3.org/2000/svg">
<path d="M16 8.5C16 4.08192 12.4181 0.5 8 0.5C3.58192 0.5 0 4.08192 0 8.5C0 12.9181 3.58192 16.5 8 16.5C12.4181 16.5 16 12.9181 16 8.5ZM7.82115 12.0138C7.76377 11.9569 7.71816 11.8893 7.68692 11.8147C7.65569 11.7402 7.63945 11.6602 7.63913 11.5794C7.63881 11.4985 7.65441 11.4184 7.68505 11.3437C7.71569 11.2689 7.76076 11.2008 7.81769 11.1435L9.83 9.11539H4.69231C4.5291 9.11539 4.37257 9.05055 4.25717 8.93514C4.14176 8.81974 4.07692 8.66321 4.07692 8.5C4.07692 8.33679 4.14176 8.18026 4.25717 8.06486C4.37257 7.94945 4.5291 7.88462 4.69231 7.88462H9.83L7.81769 5.85654C7.76077 5.79911 7.71572 5.73103 7.6851 5.65619C7.65449 5.58135 7.63892 5.50122 7.63927 5.42036C7.63963 5.3395 7.65591 5.2595 7.68718 5.18494C7.71846 5.11037 7.76411 5.04269 7.82154 4.98577C7.87897 4.92885 7.94704 4.88379 8.02188 4.85318C8.09673 4.82257 8.17686 4.80699 8.25772 4.80735C8.42102 4.80807 8.57735 4.87363 8.69231 4.98962L11.7458 8.06654C11.8602 8.18181 11.9243 8.33761 11.9243 8.5C11.9243 8.66239 11.8602 8.81819 11.7458 8.93346L8.69231 12.0104C8.63538 12.0679 8.56766 12.1136 8.49304 12.1449C8.41843 12.1762 8.33837 12.1925 8.25745 12.1928C8.17653 12.1931 8.09635 12.1775 8.02148 12.1468C7.94662 12.1161 7.87854 12.0709 7.82115 12.0138Z" fill="#FF0929"/>
</svg>
