<svg width="20" height="20" viewBox="0 0 20 20" fill="none" xmlns="http://www.w3.org/2000/svg">
<path d="M13.9585 17.3231H6.04183C5.71725 17.3231 5.44808 17.0539 5.44808 16.7293C5.44808 16.4047 5.71725 16.1356 6.04183 16.1356H13.9585C16.2227 16.1356 17.3231 15.0352 17.3231 12.771V7.22933C17.3231 4.96516 16.2227 3.86475 13.9585 3.86475H6.04183C3.77766 3.86475 2.67725 4.96516 2.67725 7.22933C2.67725 7.55391 2.40808 7.82308 2.0835 7.82308C1.75891 7.82308 1.48975 7.55391 1.48975 7.22933C1.48975 4.33975 3.15225 2.67725 6.04183 2.67725H13.9585C16.8481 2.67725 18.5106 4.33975 18.5106 7.22933V12.771C18.5106 15.6606 16.8481 17.3231 13.9585 17.3231Z" fill="white"/>
<path d="M10 10.689C9.33503 10.689 8.66211 10.4831 8.14753 10.0636L5.66961 8.08439C5.41628 7.87856 5.36878 7.50647 5.57461 7.25314C5.78045 6.9998 6.15252 6.95231 6.40585 7.15814L8.88377 9.13731C9.48544 9.62022 10.5067 9.62022 11.1084 9.13731L13.5863 7.15814C13.8396 6.95231 14.2196 6.99189 14.4175 7.25314C14.6234 7.50647 14.5838 7.88647 14.3225 8.08439L11.8446 10.0636C11.3379 10.4831 10.665 10.689 10 10.689Z" fill="white"/>
<path d="M6.8335 14.1562H2.0835C1.75891 14.1562 1.48975 13.8871 1.48975 13.5625C1.48975 13.2379 1.75891 12.9688 2.0835 12.9688H6.8335C7.15808 12.9688 7.42725 13.2379 7.42725 13.5625C7.42725 13.8871 7.15808 14.1562 6.8335 14.1562Z" fill="white"/>
<path d="M4.4585 10.9897H2.0835C1.75891 10.9897 1.48975 10.7206 1.48975 10.396C1.48975 10.0714 1.75891 9.80225 2.0835 9.80225H4.4585C4.78308 9.80225 5.05225 10.0714 5.05225 10.396C5.05225 10.7206 4.78308 10.9897 4.4585 10.9897Z" fill="white"/>
</svg>
