<svg width="15" height="15" viewBox="0 0 15 15" fill="none" xmlns="http://www.w3.org/2000/svg">
<g clip-path="url(#clip0_223_9372)">
<path d="M11.8497 14.7663L11.7799 13.6611C11.753 13.2364 11.6005 12.8349 11.3388 12.4999C11.2641 12.4042 11.126 12.3872 11.0304 12.462C10.9348 12.5367 10.9178 12.6748 10.9925 12.7704C11.1994 13.0353 11.32 13.3529 11.3413 13.6888L11.3963 14.5604H3.60408L3.65907 13.6889C3.68731 13.2435 3.88767 12.8363 4.22321 12.5424C4.42217 12.3682 4.66304 12.2427 4.91989 12.1793L6.10656 11.886C6.26435 11.847 6.37456 11.7063 6.37456 11.5441V10.6974C6.75516 10.8501 7.14525 10.9326 7.50021 10.9326C7.85039 10.9326 8.23579 10.852 8.61237 10.7027V11.5406C8.61237 11.7031 8.72247 11.8438 8.8802 11.8828L10.0808 12.1794C10.1827 12.2044 10.2832 12.2397 10.3795 12.2841C10.4093 12.2979 10.4406 12.3044 10.4715 12.3044C10.5545 12.3044 10.634 12.2571 10.6711 12.1768C10.722 12.0666 10.6739 11.936 10.5637 11.8852C10.442 11.829 10.3148 11.7844 10.1859 11.7527L9.05185 11.4726V10.4945C9.70227 10.1335 10.2397 9.58968 10.5741 8.95057C10.6303 8.84305 10.5887 8.71028 10.4812 8.65403C10.3736 8.59769 10.2409 8.63932 10.1847 8.74687C9.8719 9.34479 9.3561 9.84919 8.73231 10.1671C8.31993 10.3774 7.88238 10.4932 7.50024 10.4932C7.1134 10.4932 6.67143 10.3751 6.25538 10.1605C5.65146 9.8498 5.14732 9.36113 4.83584 8.78446C4.77818 8.67767 4.64491 8.63788 4.53809 8.69557C4.43131 8.75325 4.39152 8.88655 4.44921 8.99331C4.78161 9.60872 5.30626 10.1349 5.93517 10.487V11.4757L4.81463 11.7527C4.48999 11.8327 4.18536 11.9914 3.93376 12.2118C3.50954 12.5834 3.25627 13.0981 3.22056 13.6611L3.15083 14.7663C3.14699 14.8268 3.16841 14.8863 3.20992 14.9305C3.25144 14.9747 3.30941 14.9998 3.37012 14.9998H11.6304C11.6911 14.9998 11.7491 14.9748 11.7906 14.9305C11.8322 14.8863 11.8535 14.8268 11.8497 14.7663Z" fill="#F2002A"/>
<path d="M13.9676 3.44191C13.8462 3.44191 13.7478 3.54026 13.7478 3.66164V8.16828C13.7478 9.70955 12.1171 10.4915 11.1451 10.8204C10.6283 10.9953 10.3644 10.9025 10.3131 10.7973C10.2826 10.7348 10.3218 10.6512 10.4085 10.5942C10.7828 10.3481 12.2949 9.19698 12.2949 8.47247C12.2949 8.14522 12.2638 7.83119 12.2376 7.62541C12.2227 7.50807 12.1522 7.40363 12.0489 7.346C11.9454 7.28823 11.8193 7.28313 11.7115 7.33212L10.5382 7.86529C10.454 7.90358 10.3562 7.88266 10.295 7.81326C10.2568 7.7699 10.2385 7.71429 10.2436 7.65675C10.2487 7.59919 10.2763 7.54765 10.3216 7.51162C10.5309 7.34486 10.7063 7.213 10.8535 7.1082C10.8552 7.10694 10.857 7.1058 10.8587 7.10451C11.2073 6.85678 11.3945 6.76355 11.486 6.72863C11.4903 6.72714 11.4946 6.72564 11.4989 6.72389C11.5409 6.70883 11.559 6.70768 11.5614 6.7076H12.2809C12.4023 6.7076 12.5007 6.60925 12.5007 6.48787V3.78659C12.5007 3.66521 12.4023 3.56686 12.2809 3.56686C12.1596 3.56686 12.0612 3.66521 12.0612 3.78659V6.26811H11.711C11.7713 6.01039 11.8242 5.67995 11.809 5.34995C11.7875 4.88276 11.6302 4.52818 11.3521 4.31542C11.3284 3.53926 11.1254 2.90921 10.7479 2.44125C10.4787 2.10764 10.129 1.86392 9.7074 1.7148C9.57105 1.01021 9.01119 0.383497 8.27405 0.127502C7.63886 -0.0930448 6.3312 -0.217381 4.70945 1.42846C4.62428 1.51488 4.6253 1.65398 4.71173 1.73915C4.79816 1.82434 4.93729 1.82332 5.02245 1.73686C6.47461 0.263175 7.59263 0.356134 8.12979 0.542638C8.28293 0.595811 8.4208 0.666212 8.54378 0.748448C8.40292 0.743965 8.25981 0.756065 8.11916 0.785596C7.66878 0.880342 7.23337 1.13045 6.78797 1.55027C6.69967 1.6335 6.69554 1.77258 6.77877 1.86091C6.82201 1.90676 6.88028 1.9299 6.9387 1.9299C6.99275 1.9299 7.04692 1.91007 7.08937 1.87008C7.47425 1.50732 7.84069 1.29325 8.20957 1.21564C8.52659 1.14908 8.85571 1.19833 9.10157 1.34681C9.20932 1.53609 9.27292 1.73106 9.29217 1.90608C9.29935 1.96966 9.3012 2.03197 9.29762 2.09153C9.29285 2.17301 9.2782 2.25565 9.2537 2.33935C9.17665 2.60267 9.00207 2.8768 8.73178 3.15984C8.51372 3.38821 8.25823 3.59701 8.00343 3.78155C8.00337 3.78161 8.00332 3.78166 8.00323 3.78172C7.48324 4.15877 6.81641 4.53905 6.02121 4.91202C5.25484 5.27182 4.58822 5.9341 4.25502 6.64836C3.94834 6.44035 3.75654 6.34619 3.63267 6.3035C3.51557 5.21709 3.58386 3.70819 4.47727 2.39874C4.54565 2.29851 4.51984 2.16181 4.41961 2.09341C4.31936 2.025 4.18266 2.05084 4.11428 2.15109C3.16887 3.53671 3.07454 5.11285 3.18721 6.26809H2.93854V3.78656C2.93854 3.66518 2.84016 3.56683 2.71881 3.56683C2.59747 3.56683 2.49909 3.66518 2.49909 3.78656V6.48784C2.49909 6.60922 2.59747 6.70757 2.71881 6.70757H3.43814C3.44617 6.70777 3.61111 6.71844 4.22145 7.16231C4.22376 7.16407 4.22611 7.16577 4.22848 7.16744C4.3578 7.26166 4.50651 7.37474 4.67824 7.51159C4.72345 7.54759 4.75116 7.59913 4.75623 7.6567C4.7613 7.71423 4.74305 7.76981 4.70482 7.8132C4.64364 7.8826 4.54585 7.90352 4.46162 7.86523L3.28834 7.33206C3.18047 7.28307 3.05438 7.28823 2.95093 7.34594C2.84763 7.40357 2.77706 7.50801 2.76217 7.62535C2.73601 7.83113 2.70484 8.14516 2.70484 8.47241C2.70484 9.19692 4.21694 10.348 4.59126 10.5941C4.67798 10.6512 4.71721 10.7347 4.68668 10.7973C4.63538 10.9023 4.37148 10.9952 3.85468 10.8203C2.88264 10.4914 1.25195 9.70949 1.25195 8.16822V3.66169C1.25195 3.54032 1.15357 3.44197 1.03223 3.44197C0.910879 3.44197 0.8125 3.54032 0.8125 3.66169V8.16831C0.8125 8.95859 1.15999 9.65371 1.84539 10.2344C2.44656 10.7437 3.19328 11.0606 3.71382 11.2367C3.96411 11.3214 4.17873 11.3572 4.35973 11.3572C4.74961 11.3572 4.98355 11.1911 5.08163 10.9901C5.20992 10.7272 5.10528 10.4063 4.83273 10.2271C4.56809 10.0531 4.13464 9.71298 3.76281 9.34563C3.3068 8.89501 3.14432 8.59915 3.14432 8.47252C3.14432 8.21149 3.16585 7.95787 3.18748 7.76905L4.27984 8.26543C4.54125 8.38417 4.84459 8.31933 5.03452 8.10385C5.15312 7.96932 5.20975 7.79685 5.19404 7.61823C5.17831 7.43961 5.09241 7.2797 4.95214 7.16794C4.8317 7.07196 4.72152 6.98682 4.61956 6.91024C4.89416 6.26533 5.51391 5.63583 6.20798 5.30999C6.98106 4.94741 7.63913 4.57616 8.16627 4.20541C9.65528 4.75464 10.1898 5.87683 10.47 6.84347C10.3442 6.93608 10.2044 7.04307 10.0476 7.16794C9.90738 7.2797 9.82145 7.43961 9.80574 7.61826C9.79001 7.79688 9.84667 7.96932 9.96527 8.10388C10.1551 8.31933 10.4584 8.38416 10.72 8.26545L11.8123 7.76908C11.8339 7.95787 11.8554 8.21155 11.8554 8.47255C11.8554 8.59917 11.6929 8.89507 11.2369 9.34566C10.8651 9.71304 10.4317 10.0531 10.167 10.2271C9.89445 10.4063 9.78981 10.7272 9.9181 10.9901C10.0162 11.1912 10.2501 11.3573 10.64 11.3573C10.821 11.3573 11.0357 11.3215 11.2859 11.2368C11.8065 11.0606 12.5532 10.7438 13.1544 10.2344C13.8398 9.6538 14.1873 8.95865 14.1873 8.16836V3.66172C14.1873 3.54029 14.0889 3.44191 13.9676 3.44191ZM8.57586 3.8963C9.10537 3.46432 9.6524 2.87493 9.72957 2.1965C10.5186 2.55424 10.8069 3.29504 10.8881 3.99161L10.8029 3.93161C10.7037 3.86173 10.5666 3.88552 10.4967 3.98472C10.4269 4.08395 10.4506 4.221 10.5498 4.2909L11.0081 4.61372C11.0106 4.61548 11.0133 4.61665 11.0158 4.61829C11.0188 4.62023 11.0216 4.62245 11.0247 4.62424C11.4746 4.88402 11.423 5.69908 11.2336 6.35867C11.1359 6.40467 11.0105 6.47439 10.8493 6.57907C10.5604 5.65505 9.99277 4.51904 8.57586 3.8963Z" fill="#F2002A"/>
</g>
<defs>
<clipPath id="clip0_223_9372">
<rect width="15" height="15" fill="white"/>
</clipPath>
</defs>
</svg>
