<svg width="15" height="15" viewBox="0 0 15 15" fill="none" xmlns="http://www.w3.org/2000/svg">
<path d="M13.7998 9.97031C13.5273 10.0065 13.2502 9.98089 12.9889 9.89531C12.7674 9.82094 12.5655 9.69756 12.3983 9.53438C12.2347 9.36487 12.0227 9.25023 11.7913 9.20625C11.7733 9.20509 11.7553 9.20509 11.7373 9.20625L11.5217 8.88047C11.6449 8.90775 11.7706 8.92189 11.8967 8.92266C12.2306 8.92912 12.5593 8.83946 12.8436 8.66437C13.1279 8.48927 13.3559 8.23612 13.5004 7.93508C13.6449 7.63404 13.6998 7.2978 13.6585 6.96644C13.6173 6.63508 13.4816 6.32257 13.2677 6.06615C13.0538 5.80972 12.7707 5.6202 12.4521 5.52016C12.1336 5.42012 11.7929 5.41378 11.4709 5.50191C11.1488 5.59003 10.8588 5.7689 10.6356 6.0172C10.4123 6.26549 10.2651 6.57275 10.2116 6.90234L8.9975 5.06484C8.98702 5.04882 8.98143 5.03009 8.98143 5.01094C8.98143 4.99179 8.98702 4.97305 8.9975 4.95703C9.00457 4.9418 9.01581 4.92887 9.02991 4.91975C9.04401 4.91063 9.0604 4.90568 9.07719 4.90547H11.1116C11.3876 4.90547 11.6522 4.79583 11.8474 4.60068C12.0426 4.40552 12.1522 4.14083 12.1522 3.86484C12.1522 3.58885 12.0426 3.32417 11.8474 3.12901C11.6522 2.93386 11.3876 2.82422 11.1116 2.82422H7.07797C6.93325 2.8244 6.79077 2.85995 6.66291 2.92775C6.53506 2.99556 6.42571 3.09358 6.34438 3.21328C6.26049 3.33715 6.20829 3.47971 6.19236 3.62845C6.17642 3.7772 6.19723 3.92758 6.25297 4.06641L7.37797 6.89297C7.41501 6.98293 7.42106 7.08265 7.39518 7.17643C7.36929 7.27021 7.31294 7.35271 7.235 7.41094L4.7436 9.28594C4.67267 9.27898 4.60124 9.27898 4.53032 9.28594C4.35646 9.30784 4.19024 9.37048 4.04516 9.46875C3.9001 9.5589 3.74805 9.63727 3.59047 9.70313C3.20835 9.85912 2.80431 9.95479 2.39282 9.98672C2.331 9.99209 2.27383 10.0217 2.23385 10.0692C2.19387 10.1166 2.17434 10.178 2.17953 10.2398C2.1819 10.2707 2.19034 10.3007 2.20436 10.3282C2.21838 10.3558 2.23771 10.3803 2.26124 10.4003C2.28476 10.4204 2.31202 10.4355 2.34144 10.445C2.37086 10.4545 2.40186 10.458 2.43266 10.4555C2.89159 10.4178 3.34209 10.3103 3.7686 10.1367C3.94614 10.0652 4.11776 9.97976 4.28188 9.88125C4.37182 9.81609 4.4765 9.77422 4.58657 9.75938C4.86547 9.72422 5.03657 9.85781 5.27328 10.0406C5.52744 10.2701 5.84236 10.4215 6.18032 10.4766C6.3791 10.4908 6.57865 10.4627 6.76573 10.394C6.95281 10.3253 7.12316 10.2176 7.26547 10.0781C7.49427 9.8626 7.7909 9.73334 8.10454 9.7125C8.45098 9.71695 8.78406 9.84685 9.04204 10.0781C9.31716 10.3163 9.66314 10.4572 10.0264 10.4789C10.0955 10.479 10.1645 10.4735 10.2327 10.4625C10.592 10.3945 10.9203 10.2139 11.1702 9.94687C11.3905 9.74531 11.5147 9.64219 11.7139 9.67266C11.8562 9.70684 11.9846 9.78372 12.0819 9.89297C12.297 10.0963 12.5537 10.2507 12.8342 10.3453C13.1612 10.4521 13.5078 10.4849 13.8491 10.4414C13.8808 10.4388 13.9116 10.4298 13.9397 10.4149C13.9679 10.4 13.9927 10.3796 14.0126 10.3548C14.0326 10.33 14.0473 10.3014 14.0558 10.2708C14.0644 10.2402 14.0666 10.2081 14.0623 10.1766C14.0589 10.1457 14.0493 10.1158 14.0342 10.0887C14.019 10.0616 13.9987 10.0377 13.9742 10.0185C13.9498 9.99933 13.9218 9.98518 13.8919 9.97691C13.8619 9.96863 13.8307 9.96639 13.7998 9.97031ZM11.8967 5.90625C12.1497 5.89972 12.3989 5.96878 12.6125 6.1046C12.826 6.24041 12.9943 6.43682 13.0956 6.66872C13.197 6.90061 13.2269 7.15747 13.1816 7.40646C13.1363 7.65546 13.0177 7.88528 12.8411 8.06656C12.6645 8.24784 12.4379 8.37235 12.1901 8.42417C11.9424 8.476 11.6849 8.45278 11.4504 8.3575C11.2159 8.26221 11.0152 8.09919 10.8739 7.88925C10.7325 7.67931 10.657 7.43199 10.6569 7.17891C10.6547 7.01393 10.6851 6.85014 10.7462 6.69689C10.8073 6.54365 10.8981 6.40395 11.0132 6.28577C11.1283 6.16759 11.2656 6.07324 11.4172 6.00813C11.5688 5.94301 11.7317 5.90839 11.8967 5.90625ZM10.8608 9.60938C10.6809 9.81124 10.441 9.95007 10.1764 10.0055C9.82953 10.0594 9.60688 9.90234 9.32563 9.70313C8.98387 9.40973 8.54792 9.24916 8.0975 9.25078C7.68462 9.27598 7.2927 9.44134 6.98657 9.71953C6.73813 9.91172 6.55766 10.0523 6.23657 10.0125C5.9828 9.96672 5.74762 9.84872 5.55922 9.67266C5.47077 9.60121 5.37845 9.5347 5.28266 9.47344L7.51625 7.8C7.67601 7.67954 7.7917 7.50987 7.84549 7.31715C7.89928 7.12444 7.88818 6.91938 7.81391 6.73359L6.68891 3.90703C6.66106 3.83967 6.65054 3.76641 6.65832 3.69394C6.6661 3.62146 6.69193 3.5521 6.73344 3.49219C6.76742 3.42998 6.81711 3.37777 6.87757 3.34076C6.93802 3.30374 7.00712 3.28323 7.07797 3.28125H11.1069C11.2585 3.28125 11.404 3.3415 11.5113 3.44875C11.6185 3.556 11.6788 3.70145 11.6788 3.85313C11.6788 4.0048 11.6185 4.15025 11.5113 4.2575C11.404 4.36475 11.2585 4.425 11.1069 4.425H9.0725C8.97087 4.42531 8.87122 4.45315 8.78415 4.50556C8.69707 4.55797 8.62582 4.63299 8.57797 4.72266C8.52935 4.81419 8.5063 4.91713 8.51125 5.02066C8.5162 5.12418 8.54897 5.22446 8.6061 5.31094L11.2498 9.30234C11.1079 9.38815 10.9772 9.49129 10.8608 9.60938Z" fill="#F2002A"/>
<path d="M12.7899 11.6791C12.5174 11.7131 12.2407 11.6875 11.979 11.6041C11.7585 11.5309 11.5569 11.4101 11.3883 11.2502C11.226 11.0774 11.0138 10.9595 10.7813 10.9127C10.3524 10.8471 10.0782 11.0909 9.84382 11.3041C9.66263 11.506 9.42228 11.6455 9.1571 11.7026C8.81022 11.7541 8.58991 11.5971 8.30866 11.4002C7.96628 11.1076 7.53092 10.9464 7.08053 10.9456C6.66739 10.9696 6.27511 11.1351 5.9696 11.4143C5.72116 11.6065 5.53835 11.7448 5.2196 11.7049C4.96583 11.6591 4.73065 11.5412 4.54225 11.3651C4.4083 11.2319 4.24738 11.1288 4.07032 11.063C3.89326 10.9971 3.70415 10.9698 3.51569 10.9831C3.34184 11.005 3.17561 11.0676 3.03053 11.1659C2.88601 11.257 2.73388 11.3354 2.57585 11.4002C2.19482 11.5534 1.79241 11.6466 1.38288 11.6768C1.32072 11.6818 1.26308 11.7112 1.22264 11.7587C1.1822 11.8062 1.16228 11.8678 1.16725 11.9299C1.17223 11.9921 1.20169 12.0497 1.24916 12.0902C1.29663 12.1306 1.35822 12.1505 1.42038 12.1456C1.88021 12.1087 2.33161 12.0012 2.75866 11.8268C2.9394 11.7557 3.11417 11.6703 3.28132 11.5713C3.37044 11.5063 3.47433 11.4644 3.58366 11.4495C3.86491 11.4143 4.036 11.5479 4.27272 11.7307C4.52596 11.9615 4.8413 12.1131 5.17975 12.1666C5.37893 12.1849 5.57969 12.1597 5.76822 12.093C5.95676 12.0262 6.1286 11.9194 6.27194 11.7799C6.49851 11.5667 6.79137 11.4376 7.10163 11.4143C7.4485 11.4188 7.78183 11.5496 8.03913 11.7823C8.31606 12.0227 8.66449 12.1652 9.03053 12.1877C9.09961 12.1878 9.16859 12.1823 9.23678 12.1713C9.59586 12.1041 9.92421 11.9243 10.1743 11.6581C10.3946 11.4565 10.5165 11.351 10.718 11.3838C10.8603 11.4165 10.989 11.4927 11.086 11.6018C11.3009 11.806 11.5576 11.9612 11.8383 12.0565C12.1649 12.1615 12.5106 12.1935 12.8508 12.1502C12.8816 12.1467 12.9114 12.1371 12.9385 12.1221C12.9656 12.107 12.9894 12.0868 13.0087 12.0625C13.0279 12.0383 13.0422 12.0104 13.0507 11.9807C13.0593 11.9509 13.0618 11.9197 13.0583 11.8889C13.0547 11.8581 13.0452 11.8284 13.0301 11.8013C13.0151 11.7742 12.9948 11.7503 12.9706 11.7311C12.9463 11.7118 12.9185 11.6975 12.8887 11.689C12.8589 11.6805 12.8277 11.678 12.7969 11.6815L12.7899 11.6791Z" fill="#F2002A"/>
<path d="M3.00684 4.97363H4.85371C4.91587 4.97363 4.97549 4.94894 5.01944 4.90499C5.06339 4.86103 5.08809 4.80142 5.08809 4.73926C5.08809 4.6771 5.06339 4.61748 5.01944 4.57353C4.97549 4.52958 4.91587 4.50488 4.85371 4.50488H3.00684C2.94468 4.50488 2.88506 4.52958 2.84111 4.57353C2.79715 4.61748 2.77246 4.6771 2.77246 4.73926C2.77246 4.80142 2.79715 4.86103 2.84111 4.90499C2.88506 4.94894 2.94468 4.97363 3.00684 4.97363Z" fill="#F2002A"/>
<path d="M2.09277 5.89453H3.93027C3.99243 5.89453 4.05205 5.86984 4.096 5.82588C4.13996 5.78193 4.16465 5.72232 4.16465 5.66016C4.16465 5.598 4.13996 5.53838 4.096 5.49443C4.05205 5.45047 3.99243 5.42578 3.93027 5.42578H2.09277C2.03061 5.42578 1.971 5.45047 1.92705 5.49443C1.88309 5.53838 1.8584 5.598 1.8584 5.66016C1.8584 5.72232 1.88309 5.78193 1.92705 5.82588C1.971 5.86984 2.03061 5.89453 2.09277 5.89453Z" fill="#F2002A"/>
<path d="M4.61963 5.66016C4.61963 5.72232 4.64432 5.78193 4.68828 5.82588C4.73223 5.86984 4.79184 5.89453 4.854 5.89453H5.60635C5.66851 5.89453 5.72812 5.86984 5.77208 5.82588C5.81603 5.78193 5.84072 5.72232 5.84072 5.66016C5.84072 5.598 5.81603 5.53838 5.77208 5.49443C5.72812 5.45047 5.66851 5.42578 5.60635 5.42578H4.854C4.79184 5.42578 4.73223 5.45047 4.68828 5.49443C4.64432 5.53838 4.61963 5.598 4.61963 5.66016Z" fill="#F2002A"/>
<path d="M4.42031 6.81348C4.48247 6.81348 4.54209 6.78878 4.58604 6.74483C4.62999 6.70088 4.65469 6.64126 4.65469 6.5791C4.65469 6.51694 4.62999 6.45733 4.58604 6.41337C4.54209 6.36942 4.48247 6.34473 4.42031 6.34473H1.17188C1.10971 6.34473 1.0501 6.36942 1.00615 6.41337C0.962193 6.45733 0.9375 6.51694 0.9375 6.5791C0.9375 6.64126 0.962193 6.70088 1.00615 6.74483C1.0501 6.78878 1.10971 6.81348 1.17188 6.81348H4.42031Z" fill="#F2002A"/>
</svg>
