<svg width="16" height="17" viewBox="0 0 16 17" fill="none" xmlns="http://www.w3.org/2000/svg">
<path d="M8.00018 3.11482C9.50241 3.11482 10.5157 3.76371 11.0935 4.30593L13.3513 2.10148C11.9646 0.812595 10.1602 0.0214844 8.00018 0.0214844C4.87129 0.0214844 2.16907 1.81704 0.853516 4.43037L3.44018 6.43926C4.08907 4.51037 5.88463 3.11482 8.00018 3.11482Z" fill="#EA4335"/>
<path d="M15.68 8.19903C15.68 7.54125 15.6267 7.06125 15.5111 6.56348H8V9.53237H12.4089C12.32 10.2701 11.84 11.3813 10.7733 12.1279L13.2978 14.0835C14.8089 12.6879 15.68 10.6346 15.68 8.19903Z" fill="#4285F4"/>
<path d="M3.44889 9.60351C3.28 9.10573 3.18222 8.5724 3.18222 8.02129C3.18222 7.47018 3.28 6.93684 3.44 6.43906L0.853333 4.43018C0.311111 5.51462 0 6.7324 0 8.02129C0 9.31018 0.311111 10.528 0.853333 11.6124L3.44889 9.60351Z" fill="#FBBC05"/>
<path d="M8.00008 16.0218C10.1601 16.0218 11.9734 15.3107 13.2979 14.084L10.7734 12.1284C10.0979 12.5996 9.19119 12.9284 8.00008 12.9284C5.88453 12.9284 4.08897 11.5329 3.44897 9.604L0.862305 11.6129C2.17786 14.2262 4.87119 16.0218 8.00008 16.0218Z" fill="#34A853"/>
</svg>
